<?xml version="1.0" encoding="UTF-8"?>
<svg xmlns="http://www.w3.org/2000/svg" xmlns:xlink="http://www.w3.org/1999/xlink" width="201.78" height="120.02" viewBox="0 0 201.78 120.02">
<defs>
<clipPath id="clip-0">
<path clip-rule="nonzero" d="M 11 101 L 26 101 L 26 120.019531 L 11 120.019531 Z M 11 101 "/>
</clipPath>
<clipPath id="clip-1">
<path clip-rule="nonzero" d="M 131 101 L 144 101 L 144 120.019531 L 131 120.019531 Z M 131 101 "/>
</clipPath>
<clipPath id="clip-2">
<path clip-rule="nonzero" d="M 0 0 L 201.78125 0 L 201.78125 94 L 0 94 Z M 0 0 "/>
</clipPath>
</defs>
<g clip-path="url(#clip-0)">
<path fill-rule="nonzero" fill="rgb(31.169128%, 30.967712%, 34.222412%)" fill-opacity="1" d="M 14.214844 101.871094 L 14.214844 112.71875 C 14.214844 114.917969 15.3125 117.769531 18.664062 117.769531 C 22.011719 117.769531 23.113281 114.917969 23.113281 112.71875 L 23.113281 101.871094 L 25.511719 101.871094 L 25.511719 113.09375 C 25.511719 117.195312 22.539062 120.019531 18.664062 120.019531 C 14.789062 120.019531 11.8125 117.195312 11.8125 113.09375 L 11.8125 101.871094 L 14.214844 101.871094 "/>
</g>
<path fill-rule="nonzero" fill="rgb(31.169128%, 30.967712%, 34.222412%)" fill-opacity="1" d="M 34.8125 101.871094 L 37.964844 101.871094 L 47.714844 116.417969 L 47.761719 116.417969 L 47.761719 101.871094 L 50.164062 101.871094 L 50.164062 119.570312 L 47.113281 119.570312 L 37.261719 105.015625 L 37.214844 105.015625 L 37.214844 119.570312 L 34.8125 119.570312 L 34.8125 101.871094 "/>
<path fill-rule="nonzero" fill="rgb(31.169128%, 30.967712%, 34.222412%)" fill-opacity="1" d="M 59.789062 101.871094 L 62.1875 101.871094 L 62.1875 119.570312 L 59.789062 119.570312 L 59.789062 101.871094 "/>
<path fill-rule="nonzero" fill="rgb(31.169128%, 30.967712%, 34.222412%)" fill-opacity="1" d="M 69.386719 101.871094 L 72.164062 101.871094 L 77.363281 116.269531 L 77.414062 116.269531 L 82.8125 101.871094 L 85.4375 101.871094 L 78.460938 119.570312 L 76.210938 119.570312 L 69.386719 101.871094 "/>
<path fill-rule="nonzero" fill="rgb(31.169128%, 30.967712%, 34.222412%)" fill-opacity="1" d="M 92.636719 101.871094 L 104.0625 101.871094 L 104.0625 104.121094 L 95.039062 104.121094 L 95.039062 109.394531 L 103.4375 109.394531 L 103.4375 111.644531 L 95.039062 111.644531 L 95.039062 117.320312 L 104.511719 117.320312 L 104.511719 119.570312 L 92.636719 119.570312 L 92.636719 101.871094 "/>
<path fill-rule="nonzero" fill="rgb(31.169128%, 30.967712%, 34.222412%)" fill-opacity="1" d="M 115.386719 109.667969 L 118.535156 109.667969 C 120.4375 109.667969 122.339844 109.21875 122.339844 106.820312 C 122.339844 104.417969 120.4375 103.96875 118.535156 103.96875 L 115.386719 103.96875 Z M 112.984375 101.871094 L 119.214844 101.871094 C 123.734375 101.871094 124.886719 104.59375 124.886719 106.820312 C 124.886719 109.070312 123.214844 111.195312 120.535156 111.496094 L 125.5625 119.570312 L 122.5625 119.570312 L 118.0625 111.769531 L 115.386719 111.769531 L 115.386719 119.570312 L 112.984375 119.570312 L 112.984375 101.871094 "/>
<g clip-path="url(#clip-1)">
<path fill-rule="nonzero" fill="rgb(31.169128%, 30.967712%, 34.222412%)" fill-opacity="1" d="M 133.859375 115.871094 C 134.714844 117.167969 136.1875 117.769531 137.609375 117.769531 C 139.1875 117.769531 141.136719 116.769531 141.136719 114.820312 C 141.136719 110.746094 132.410156 113.269531 132.410156 106.371094 C 132.410156 104.292969 134.160156 101.417969 138.410156 101.417969 C 140.339844 101.417969 142.1875 101.820312 143.511719 103.445312 L 141.5625 105.21875 C 140.964844 104.292969 139.785156 103.667969 138.410156 103.667969 C 135.761719 103.667969 134.964844 105.265625 134.964844 106.371094 C 134.964844 110.84375 143.6875 108.167969 143.6875 114.542969 C 143.6875 117.96875 140.9375 120.019531 137.535156 120.019531 C 135.261719 120.019531 133.089844 119.246094 131.886719 117.570312 L 133.859375 115.871094 "/>
</g>
<path fill-rule="nonzero" fill="rgb(31.169128%, 30.967712%, 34.222412%)" fill-opacity="1" d="M 152.3125 101.871094 L 154.707031 101.871094 L 154.707031 119.570312 L 152.3125 119.570312 L 152.3125 101.871094 "/>
<path fill-rule="nonzero" fill="rgb(31.169128%, 30.967712%, 34.222412%)" fill-opacity="1" d="M 168.035156 104.121094 L 162.339844 104.121094 L 162.339844 101.871094 L 176.136719 101.871094 L 176.136719 104.121094 L 170.4375 104.121094 L 170.4375 119.570312 L 168.035156 119.570312 L 168.035156 104.121094 "/>
<path fill-rule="nonzero" fill="rgb(31.169128%, 30.967712%, 34.222412%)" fill-opacity="1" d="M 187.9375 112.019531 L 181.234375 101.871094 L 184.3125 101.871094 L 189.136719 109.644531 L 194.109375 101.871094 L 197.035156 101.871094 L 190.332031 112.019531 L 190.332031 119.570312 L 187.9375 119.570312 L 187.9375 112.019531 "/>
<path fill-rule="nonzero" fill="rgb(50.39978%, 5.648804%, 16.172791%)" fill-opacity="1" d="M 20.925781 93.492188 L 16.09375 78.832031 L 16.039062 78.832031 L 16.039062 93.492188 L 20.925781 93.492188 "/>
<path fill-rule="nonzero" fill="rgb(50.39978%, 5.648804%, 16.172791%)" fill-opacity="1" d="M 29.214844 93.492188 L 29.214844 78.832031 L 29.160156 78.832031 L 24.136719 93.492188 L 29.214844 93.492188 "/>
<path fill-rule="nonzero" fill="rgb(50.39978%, 5.648804%, 16.172791%)" fill-opacity="1" d="M 74.222656 93.492188 L 69.386719 78.832031 L 69.335938 78.832031 L 69.335938 93.492188 L 74.222656 93.492188 "/>
<path fill-rule="nonzero" fill="rgb(50.39978%, 5.648804%, 16.172791%)" fill-opacity="1" d="M 82.511719 93.492188 L 82.511719 78.832031 L 82.457031 78.832031 L 77.433594 93.492188 L 82.511719 93.492188 "/>
<path fill-rule="nonzero" fill="rgb(50.39978%, 5.648804%, 16.172791%)" fill-opacity="1" d="M 128.082031 82.285156 L 130.570312 82.285156 C 132.109375 82.285156 134.105469 82.234375 134.105469 80.152344 C 134.105469 78.238281 132.378906 77.941406 130.839844 77.941406 L 128.082031 77.941406 Z M 134.160156 93.492188 L 130.164062 85.847656 L 128.082031 85.847656 L 128.082031 93.492188 L 134.160156 93.492188 "/>
<path fill-rule="nonzero" fill="rgb(50.39978%, 5.648804%, 16.172791%)" fill-opacity="1" d="M 168.070312 79.9375 L 165.75 85.878906 L 170.421875 85.878906 Z M 173.5 93.492188 L 171.855469 89.441406 L 164.425781 89.441406 L 162.832031 93.492188 L 173.5 93.492188 "/>
<g clip-path="url(#clip-2)">
<path fill-rule="nonzero" fill="rgb(50.39978%, 5.648804%, 16.172791%)" fill-opacity="1" d="M 101.882812 93.507812 C 97.746094 92.296875 94.984375 88.816406 94.984375 83.933594 C 94.984375 77.804688 99.332031 73.890625 105.300781 73.890625 C 111.265625 73.890625 115.613281 77.804688 115.613281 83.933594 C 115.613281 88.820312 112.851562 92.296875 108.707031 93.507812 L 123.875 93.492188 L 123.875 74.375 L 131.269531 74.375 C 135.1875 74.375 138.480469 75.722656 138.480469 80.179688 C 138.480469 82.855469 137.050781 84.933594 134.351562 85.417969 L 139.207031 93.492188 L 146.71875 93.492188 L 146.71875 74.375 L 150.925781 74.375 L 150.925781 93.492188 L 158.191406 93.492188 L 166.453125 74.375 L 169.933594 74.375 L 178.25 93.492188 L 185.730469 93.492188 L 185.730469 74.375 L 189.941406 74.375 L 189.941406 89.605469 L 197.746094 89.605469 L 197.746094 93.492188 L 201.78125 93.515625 L 201.78125 0.00390625 L 186.515625 0.0273438 L 117.890625 11.707031 L 105.523438 13.515625 L 102.511719 15.023438 L 93.46875 18.339844 L 77.1875 22.5625 L 57.589844 27.6875 L 49.144531 27.6875 L 34.070312 28.890625 L 26.535156 30.703125 L 19.507812 31.949219 L 8.550781 31.667969 L 0 32.8125 L 0.90625 35.523438 L 4.824219 44.875 L 7.132812 47.066406 L 5.730469 50 L 6.652344 56.105469 L 9.0625 60.929688 L 8.160156 66.976562 L 7.253906 72.402344 L 7.539062 77.738281 L 7.792969 84.382812 L 6.28125 90.050781 L 3.890625 93.503906 L 11.824219 93.492188 L 11.824219 74.375 L 18.195312 74.375 L 22.597656 86.847656 L 22.652344 86.847656 L 27.082031 74.375 L 33.425781 74.375 L 33.425781 93.492188 L 42.875 93.492188 L 42.875 74.375 L 55.863281 74.375 L 55.863281 78.265625 L 47.085938 78.265625 L 47.085938 81.828125 L 55.375 81.828125 L 55.375 85.714844 L 47.085938 85.714844 L 47.085938 89.605469 L 56.347656 89.605469 L 56.347656 93.492188 L 65.125 93.492188 L 65.125 74.375 L 71.496094 74.375 L 75.894531 86.847656 L 75.949219 86.847656 L 80.378906 74.375 L 86.722656 74.375 L 86.722656 93.492188 L 101.882812 93.507812 "/>
</g>
<path fill-rule="nonzero" fill="rgb(50.39978%, 5.648804%, 16.172791%)" fill-opacity="1" d="M 105.300781 90.089844 C 108.890625 90.089844 111.238281 87.496094 111.238281 83.933594 C 111.238281 80.371094 108.890625 77.777344 105.300781 77.777344 C 101.707031 77.777344 99.359375 80.371094 99.359375 83.933594 C 99.359375 87.496094 101.707031 90.089844 105.300781 90.089844 "/>
<path fill-rule="nonzero" fill="rgb(100%, 100%, 100%)" fill-opacity="1" d="M 11.816406 74.359375 L 18.1875 74.359375 L 22.589844 86.832031 L 22.644531 86.832031 L 27.070312 74.359375 L 33.417969 74.359375 L 33.417969 93.472656 L 29.203125 93.472656 L 29.203125 78.816406 L 29.152344 78.816406 L 24.128906 93.472656 L 20.917969 93.472656 L 16.082031 78.816406 L 16.03125 78.816406 L 16.03125 93.472656 L 11.816406 93.472656 L 11.816406 74.359375 "/>
<path fill-rule="nonzero" fill="rgb(100%, 100%, 100%)" fill-opacity="1" d="M 42.867188 74.359375 L 55.855469 74.359375 L 55.855469 78.246094 L 47.078125 78.246094 L 47.078125 81.8125 L 55.367188 81.8125 L 55.367188 85.699219 L 47.078125 85.699219 L 47.078125 89.585938 L 56.339844 89.585938 L 56.339844 93.472656 L 42.867188 93.472656 L 42.867188 74.359375 "/>
<path fill-rule="nonzero" fill="rgb(100%, 100%, 100%)" fill-opacity="1" d="M 65.113281 74.359375 L 71.488281 74.359375 L 75.886719 86.832031 L 75.941406 86.832031 L 80.371094 74.359375 L 86.714844 74.359375 L 86.714844 93.472656 L 82.503906 93.472656 L 82.503906 78.816406 L 82.449219 78.816406 L 77.425781 93.472656 L 74.214844 93.472656 L 69.378906 78.816406 L 69.324219 78.816406 L 69.324219 93.472656 L 65.113281 93.472656 L 65.113281 74.359375 "/>
<path fill-rule="nonzero" fill="rgb(100%, 100%, 100%)" fill-opacity="1" d="M 105.289062 90.074219 C 108.878906 90.074219 111.230469 87.480469 111.230469 83.917969 C 111.230469 80.355469 108.878906 77.761719 105.289062 77.761719 C 101.699219 77.761719 99.351562 80.355469 99.351562 83.917969 C 99.351562 87.480469 101.699219 90.074219 105.289062 90.074219 Z M 101.882812 93.492188 C 97.742188 92.28125 94.976562 88.804688 94.976562 83.917969 C 94.976562 77.785156 99.324219 73.875 105.289062 73.875 C 111.257812 73.875 115.605469 77.785156 115.605469 83.917969 C 115.605469 88.839844 112.800781 92.332031 108.605469 93.519531 L 101.882812 93.492188 "/>
<path fill-rule="nonzero" fill="rgb(100%, 100%, 100%)" fill-opacity="1" d="M 128.078125 82.269531 L 130.5625 82.269531 C 132.101562 82.269531 134.101562 82.214844 134.101562 80.136719 C 134.101562 78.21875 132.371094 77.925781 130.832031 77.925781 L 128.078125 77.925781 Z M 123.867188 74.359375 L 131.261719 74.359375 C 135.179688 74.359375 138.472656 75.707031 138.472656 80.164062 C 138.472656 82.835938 137.042969 84.917969 134.34375 85.402344 L 139.199219 93.472656 L 134.152344 93.472656 L 130.15625 85.832031 L 128.078125 85.832031 L 128.078125 93.472656 L 123.867188 93.472656 L 123.867188 74.359375 "/>
<path fill-rule="nonzero" fill="rgb(100%, 100%, 100%)" fill-opacity="1" d="M 146.707031 74.359375 L 150.921875 74.359375 L 150.921875 93.472656 L 146.707031 93.472656 L 146.707031 74.359375 "/>
<path fill-rule="nonzero" fill="rgb(100%, 100%, 100%)" fill-opacity="1" d="M 168.0625 79.921875 L 165.742188 85.863281 L 170.410156 85.863281 Z M 166.445312 74.359375 L 169.925781 74.359375 L 178.242188 93.472656 L 173.492188 93.472656 L 171.84375 89.425781 L 164.421875 89.425781 L 162.824219 93.472656 L 158.183594 93.472656 L 166.445312 74.359375 "/>
<path fill-rule="nonzero" fill="rgb(100%, 100%, 100%)" fill-opacity="1" d="M 185.722656 74.359375 L 189.933594 74.359375 L 189.933594 89.585938 L 197.738281 89.585938 L 197.738281 93.472656 L 185.722656 93.472656 L 185.722656 74.359375 "/>
</svg>
