<?xml version="1.0" encoding="UTF-8"?>
<svg xmlns="http://www.w3.org/2000/svg" xmlns:xlink="http://www.w3.org/1999/xlink" width="202" height="121" viewBox="0 0 202 121">
<defs>
<clipPath id="clip-0">
<path clip-rule="nonzero" d="M 0 0.984375 L 201.785156 0.984375 L 201.785156 95 L 0 95 Z M 0 0.984375 "/>
</clipPath>
</defs>
<path fill-rule="nonzero" fill="rgb(13.729858%, 12.159729%, 12.548828%)" fill-opacity="1" d="M 14.210938 102.847656 L 14.210938 113.699219 C 14.210938 115.898438 15.3125 118.75 18.660156 118.75 C 22.011719 118.75 23.113281 115.898438 23.113281 113.699219 L 23.113281 102.847656 L 25.511719 102.847656 L 25.511719 114.074219 C 25.511719 118.171875 22.535156 121 18.660156 121 C 14.785156 121 11.8125 118.171875 11.8125 114.074219 L 11.8125 102.847656 L 14.210938 102.847656 "/>
<path fill-rule="nonzero" fill="rgb(13.729858%, 12.159729%, 12.548828%)" fill-opacity="1" d="M 34.8125 102.847656 L 37.960938 102.847656 L 47.710938 117.398438 L 47.761719 117.398438 L 47.761719 102.847656 L 50.160156 102.847656 L 50.160156 120.546875 L 47.113281 120.546875 L 37.261719 105.996094 L 37.210938 105.996094 L 37.210938 120.546875 L 34.8125 120.546875 L 34.8125 102.847656 "/>
<path fill-rule="nonzero" fill="rgb(13.729858%, 12.159729%, 12.548828%)" fill-opacity="1" d="M 59.785156 102.847656 L 62.1875 102.847656 L 62.1875 120.546875 L 59.785156 120.546875 L 59.785156 102.847656 "/>
<path fill-rule="nonzero" fill="rgb(13.729858%, 12.159729%, 12.548828%)" fill-opacity="1" d="M 69.386719 102.847656 L 72.160156 102.847656 L 77.363281 117.25 L 77.410156 117.25 L 82.8125 102.847656 L 85.4375 102.847656 L 78.460938 120.546875 L 76.210938 120.546875 L 69.386719 102.847656 "/>
<path fill-rule="nonzero" fill="rgb(13.729858%, 12.159729%, 12.548828%)" fill-opacity="1" d="M 92.636719 102.847656 L 104.0625 102.847656 L 104.0625 105.097656 L 95.035156 105.097656 L 95.035156 110.375 L 103.4375 110.375 L 103.4375 112.625 L 95.035156 112.625 L 95.035156 118.296875 L 104.511719 118.296875 L 104.511719 120.546875 L 92.636719 120.546875 L 92.636719 102.847656 "/>
<path fill-rule="nonzero" fill="rgb(13.729858%, 12.159729%, 12.548828%)" fill-opacity="1" d="M 115.386719 110.648438 L 118.535156 110.648438 C 120.4375 110.648438 122.335938 110.199219 122.335938 107.796875 C 122.335938 105.398438 120.4375 104.949219 118.535156 104.949219 L 115.386719 104.949219 Z M 112.984375 102.847656 L 119.210938 102.847656 C 123.734375 102.847656 124.886719 105.574219 124.886719 107.796875 C 124.886719 110.046875 123.210938 112.171875 120.535156 112.472656 L 125.5625 120.546875 L 122.5625 120.546875 L 118.0625 112.75 L 115.386719 112.75 L 115.386719 120.546875 L 112.984375 120.546875 L 112.984375 102.847656 "/>
<path fill-rule="nonzero" fill="rgb(13.729858%, 12.159729%, 12.548828%)" fill-opacity="1" d="M 133.859375 116.847656 C 134.710938 118.148438 136.1875 118.75 137.609375 118.75 C 139.1875 118.75 141.136719 117.75 141.136719 115.796875 C 141.136719 111.722656 132.410156 114.25 132.410156 107.347656 C 132.410156 105.273438 134.160156 102.398438 138.410156 102.398438 C 140.335938 102.398438 142.1875 102.796875 143.511719 104.421875 L 141.5625 106.199219 C 140.960938 105.273438 139.785156 104.648438 138.410156 104.648438 C 135.761719 104.648438 134.960938 106.246094 134.960938 107.347656 C 134.960938 111.824219 143.6875 109.148438 143.6875 115.523438 C 143.6875 118.949219 140.9375 121 137.535156 121 C 135.261719 121 133.085938 120.222656 131.886719 118.546875 L 133.859375 116.847656 "/>
<path fill-rule="nonzero" fill="rgb(13.729858%, 12.159729%, 12.548828%)" fill-opacity="1" d="M 152.3125 102.847656 L 154.710938 102.847656 L 154.710938 120.546875 L 152.3125 120.546875 L 152.3125 102.847656 "/>
<path fill-rule="nonzero" fill="rgb(13.729858%, 12.159729%, 12.548828%)" fill-opacity="1" d="M 168.035156 105.097656 L 162.335938 105.097656 L 162.335938 102.847656 L 176.136719 102.847656 L 176.136719 105.097656 L 170.4375 105.097656 L 170.4375 120.546875 L 168.035156 120.546875 L 168.035156 105.097656 "/>
<path fill-rule="nonzero" fill="rgb(13.729858%, 12.159729%, 12.548828%)" fill-opacity="1" d="M 187.9375 113 L 181.234375 102.847656 L 184.3125 102.847656 L 189.136719 110.625 L 194.109375 102.847656 L 197.035156 102.847656 L 190.335938 113 L 190.335938 120.546875 L 187.9375 120.546875 L 187.9375 113 "/>
<path fill-rule="nonzero" fill="rgb(13.729858%, 12.159729%, 12.548828%)" fill-opacity="1" d="M 20.925781 94.46875 L 16.089844 79.808594 L 16.035156 79.808594 L 16.035156 94.46875 L 20.925781 94.46875 "/>
<path fill-rule="nonzero" fill="rgb(13.729858%, 12.159729%, 12.548828%)" fill-opacity="1" d="M 29.214844 94.46875 L 29.214844 79.808594 L 29.160156 79.808594 L 24.136719 94.46875 L 29.214844 94.46875 "/>
<path fill-rule="nonzero" fill="rgb(13.729858%, 12.159729%, 12.548828%)" fill-opacity="1" d="M 74.21875 94.46875 L 69.386719 79.808594 L 69.335938 79.808594 L 69.335938 94.46875 L 74.21875 94.46875 "/>
<path fill-rule="nonzero" fill="rgb(13.729858%, 12.159729%, 12.548828%)" fill-opacity="1" d="M 82.511719 94.46875 L 82.511719 79.808594 L 82.457031 79.808594 L 77.433594 94.46875 L 82.511719 94.46875 "/>
<path fill-rule="nonzero" fill="rgb(13.729858%, 12.159729%, 12.548828%)" fill-opacity="1" d="M 128.085938 83.265625 L 130.570312 83.265625 C 132.109375 83.265625 134.105469 83.210938 134.105469 81.132812 C 134.105469 79.214844 132.378906 78.917969 130.839844 78.917969 L 128.085938 78.917969 Z M 134.160156 94.46875 L 130.164062 86.828125 L 128.085938 86.828125 L 128.085938 94.46875 L 134.160156 94.46875 "/>
<path fill-rule="nonzero" fill="rgb(13.729858%, 12.159729%, 12.548828%)" fill-opacity="1" d="M 168.070312 80.917969 L 165.75 86.855469 L 170.421875 86.855469 Z M 173.5 94.46875 L 171.851562 90.421875 L 164.425781 90.421875 L 162.835938 94.46875 L 173.5 94.46875 "/>
<g clip-path="url(#clip-0)">
<path fill-rule="nonzero" fill="rgb(13.729858%, 12.159729%, 12.548828%)" fill-opacity="1" d="M 101.882812 94.484375 C 97.742188 93.273438 94.984375 89.796875 94.984375 84.914062 C 94.984375 78.785156 99.332031 74.867188 105.296875 74.867188 C 111.265625 74.867188 115.613281 78.785156 115.613281 84.914062 C 115.613281 89.796875 112.851562 93.277344 108.710938 94.488281 L 123.875 94.46875 L 123.875 75.355469 L 131.269531 75.355469 C 135.1875 75.355469 138.480469 76.703125 138.480469 81.160156 C 138.480469 83.832031 137.050781 85.910156 134.347656 86.398438 L 139.210938 94.46875 L 146.714844 94.46875 L 146.714844 75.355469 L 150.925781 75.355469 L 150.925781 94.46875 L 158.191406 94.46875 L 166.453125 75.355469 L 169.933594 75.355469 L 178.25 94.46875 L 185.730469 94.46875 L 185.730469 75.355469 L 189.941406 75.355469 L 189.941406 90.582031 L 197.746094 90.582031 L 197.746094 94.46875 L 201.785156 94.496094 L 201.785156 0.984375 L 186.515625 1.007812 L 117.890625 12.6875 L 105.527344 14.496094 L 102.511719 16.003906 L 93.46875 19.320312 L 77.1875 23.539062 L 57.589844 28.667969 L 49.144531 28.667969 L 34.070312 29.875 L 26.53125 31.683594 L 19.507812 32.929688 L 8.546875 32.648438 L 0 33.792969 L 0.90625 36.507812 L 4.824219 45.851562 L 7.132812 48.042969 L 5.730469 50.976562 L 6.652344 57.085938 L 9.0625 61.90625 L 8.160156 67.957031 L 7.253906 73.382812 L 7.539062 78.714844 L 7.792969 85.359375 L 6.28125 91.027344 L 3.890625 94.480469 L 11.824219 94.46875 L 11.824219 75.355469 L 18.195312 75.355469 L 22.597656 87.828125 L 22.652344 87.828125 L 27.082031 75.355469 L 33.425781 75.355469 L 33.425781 94.46875 L 42.875 94.46875 L 42.875 75.355469 L 55.863281 75.355469 L 55.863281 79.242188 L 47.085938 79.242188 L 47.085938 82.804688 L 55.375 82.804688 L 55.375 86.695312 L 47.085938 86.695312 L 47.085938 90.582031 L 56.347656 90.582031 L 56.347656 94.46875 L 65.121094 94.46875 L 65.121094 75.355469 L 71.496094 75.355469 L 75.894531 87.828125 L 75.949219 87.828125 L 80.378906 75.355469 L 86.722656 75.355469 L 86.722656 94.46875 L 101.882812 94.484375 "/>
</g>
<path fill-rule="nonzero" fill="rgb(13.729858%, 12.159729%, 12.548828%)" fill-opacity="1" d="M 105.296875 91.070312 C 108.890625 91.070312 111.238281 88.476562 111.238281 84.914062 C 111.238281 81.347656 108.890625 78.757812 105.296875 78.757812 C 101.707031 78.757812 99.359375 81.347656 99.359375 84.914062 C 99.359375 88.476562 101.707031 91.070312 105.296875 91.070312 "/>
<path fill-rule="nonzero" fill="rgb(100%, 100%, 100%)" fill-opacity="1" d="M 11.816406 75.339844 L 18.1875 75.339844 L 22.589844 87.8125 L 22.644531 87.8125 L 27.070312 75.339844 L 33.417969 75.339844 L 33.417969 94.453125 L 29.203125 94.453125 L 29.203125 79.792969 L 29.152344 79.792969 L 24.128906 94.453125 L 20.914062 94.453125 L 16.082031 79.792969 L 16.027344 79.792969 L 16.027344 94.453125 L 11.816406 94.453125 L 11.816406 75.339844 "/>
<path fill-rule="nonzero" fill="rgb(100%, 100%, 100%)" fill-opacity="1" d="M 42.867188 75.339844 L 55.851562 75.339844 L 55.851562 79.226562 L 47.078125 79.226562 L 47.078125 82.789062 L 55.367188 82.789062 L 55.367188 86.679688 L 47.078125 86.679688 L 47.078125 90.566406 L 56.339844 90.566406 L 56.339844 94.453125 L 42.867188 94.453125 L 42.867188 75.339844 "/>
<path fill-rule="nonzero" fill="rgb(100%, 100%, 100%)" fill-opacity="1" d="M 65.113281 75.339844 L 71.484375 75.339844 L 75.886719 87.8125 L 75.941406 87.8125 L 80.367188 75.339844 L 86.714844 75.339844 L 86.714844 94.453125 L 82.503906 94.453125 L 82.503906 79.792969 L 82.449219 79.792969 L 77.425781 94.453125 L 74.214844 94.453125 L 69.378906 79.792969 L 69.324219 79.792969 L 69.324219 94.453125 L 65.113281 94.453125 L 65.113281 75.339844 "/>
<path fill-rule="nonzero" fill="rgb(100%, 100%, 100%)" fill-opacity="1" d="M 105.289062 91.054688 C 108.878906 91.054688 111.230469 88.460938 111.230469 84.898438 C 111.230469 81.332031 108.878906 78.742188 105.289062 78.742188 C 101.699219 78.742188 99.347656 81.332031 99.347656 84.898438 C 99.347656 88.460938 101.699219 91.054688 105.289062 91.054688 Z M 101.882812 94.472656 C 97.738281 93.261719 94.976562 89.785156 94.976562 84.898438 C 94.976562 78.769531 99.324219 74.851562 105.289062 74.851562 C 111.257812 74.851562 115.605469 78.769531 115.605469 84.898438 C 115.605469 89.820312 112.800781 93.3125 108.605469 94.5 L 101.882812 94.472656 "/>
<path fill-rule="nonzero" fill="rgb(100%, 100%, 100%)" fill-opacity="1" d="M 128.078125 83.25 L 130.5625 83.25 C 132.101562 83.25 134.097656 83.195312 134.097656 81.117188 C 134.097656 79.199219 132.371094 78.902344 130.832031 78.902344 L 128.078125 78.902344 Z M 123.863281 75.339844 L 131.261719 75.339844 C 135.179688 75.339844 138.472656 76.6875 138.472656 81.144531 C 138.472656 83.816406 137.039062 85.894531 134.339844 86.382812 L 139.199219 94.453125 L 134.152344 94.453125 L 130.15625 86.8125 L 128.078125 86.8125 L 128.078125 94.453125 L 123.863281 94.453125 L 123.863281 75.339844 "/>
<path fill-rule="nonzero" fill="rgb(100%, 100%, 100%)" fill-opacity="1" d="M 146.707031 75.339844 L 150.917969 75.339844 L 150.917969 94.453125 L 146.707031 94.453125 L 146.707031 75.339844 "/>
<path fill-rule="nonzero" fill="rgb(100%, 100%, 100%)" fill-opacity="1" d="M 168.0625 80.902344 L 165.742188 86.839844 L 170.414062 86.839844 Z M 166.445312 75.339844 L 169.925781 75.339844 L 178.242188 94.453125 L 173.492188 94.453125 L 171.84375 90.40625 L 164.417969 90.40625 L 162.824219 94.453125 L 158.179688 94.453125 L 166.445312 75.339844 "/>
<path fill-rule="nonzero" fill="rgb(100%, 100%, 100%)" fill-opacity="1" d="M 185.722656 75.339844 L 189.933594 75.339844 L 189.933594 90.566406 L 197.738281 90.566406 L 197.738281 94.453125 L 185.722656 94.453125 L 185.722656 75.339844 "/>
</svg>
